<?xml version="1.0" encoding="utf-8"?>
<!-- Generator: Adobe Illustrator 18.1.1, SVG Export Plug-In . SVG Version: 6.00 Build 0)  -->
<svg version="1.1" id="Layer_1" xmlns="http://www.w3.org/2000/svg" xmlns:xlink="http://www.w3.org/1999/xlink" x="0px" y="0px"
	 viewBox="0 0 476.1 250.6" enable-background="new 0 0 476.1 250.6" xml:space="preserve">
<g>
	<path fill="#F6F7F7" d="M82.1,172.6l3,11.6h0l3.2-11.6H90l3.2,11.6h0l3-11.6h1.3l-3.6,13.2h-1.3L89.2,174h0l-3.3,11.8h-1.4
		l-3.7-13.2H82.1z"/>
	<path fill="#F6F7F7" d="M108,172.6v1.1h-7.9v4.8h7.4v1.1h-7.4v5.2h8v1.1h-9.2v-13.2H108z"/>
	<path fill="#F6F7F7" d="M115.5,172.6c0.6,0,1.1,0.1,1.6,0.2c0.5,0.1,1,0.3,1.4,0.5c0.4,0.3,0.7,0.6,0.9,1c0.2,0.4,0.4,0.9,0.4,1.5
		c0,0.3-0.1,0.7-0.2,1c-0.1,0.3-0.3,0.6-0.5,0.9c-0.2,0.3-0.4,0.5-0.7,0.7c-0.3,0.2-0.6,0.3-0.9,0.4v0c0.9,0.1,1.5,0.5,2,1
		c0.5,0.6,0.8,1.3,0.8,2.2c0,0.2,0,0.4-0.1,0.7c0,0.3-0.1,0.5-0.2,0.8c-0.1,0.3-0.3,0.5-0.5,0.8c-0.2,0.3-0.5,0.5-0.8,0.7
		c-0.4,0.2-0.8,0.4-1.3,0.5s-1.1,0.2-1.8,0.2h-5.6v-13.2H115.5z M115.5,178.4c0.5,0,0.9-0.1,1.3-0.2c0.4-0.1,0.7-0.3,0.9-0.5
		c0.2-0.2,0.4-0.4,0.6-0.7c0.1-0.3,0.2-0.6,0.2-0.9c0-1.7-1-2.5-3-2.5h-4.3v4.7H115.5z M115.5,184.7c0.5,0,0.9,0,1.3-0.1
		c0.4-0.1,0.8-0.2,1.1-0.4c0.3-0.2,0.6-0.5,0.8-0.8c0.2-0.4,0.3-0.8,0.3-1.3c0-0.9-0.3-1.5-0.9-1.9c-0.6-0.4-1.5-0.6-2.6-0.6h-4.3
		v5.3H115.5z"/>
	<path fill="#F6F7F7" d="M132,172.6c2,0,3.5,0.6,4.5,1.7c1,1.1,1.5,2.7,1.5,4.9c0,2.2-0.5,3.8-1.5,4.9c-1,1.1-2.5,1.6-4.5,1.7h-4.6
		v-13.2H132z M131.3,184.7c1,0,1.8-0.1,2.5-0.3c0.7-0.2,1.2-0.5,1.7-1c0.4-0.4,0.8-1,1-1.7c0.2-0.7,0.3-1.5,0.3-2.5
		c0-1-0.1-1.8-0.3-2.5c-0.2-0.7-0.5-1.3-1-1.7s-1-0.8-1.7-1c-0.7-0.2-1.5-0.3-2.5-0.3h-2.7v11.1H131.3z"/>
	<path fill="#F6F7F7" d="M149.2,172.6v1.1h-7.9v4.8h7.4v1.1h-7.4v5.2h8v1.1h-9.2v-13.2H149.2z"/>
	<path fill="#F6F7F7" d="M151.9,183.1c0.2,0.5,0.5,0.8,0.9,1.1c0.4,0.3,0.8,0.5,1.4,0.6c0.5,0.1,1.1,0.2,1.7,0.2
		c0.3,0,0.7,0,1.1-0.1c0.4-0.1,0.8-0.3,1.1-0.5c0.4-0.2,0.6-0.5,0.9-0.8c0.2-0.3,0.4-0.7,0.4-1.2c0-0.4-0.1-0.7-0.3-1
		c-0.2-0.3-0.4-0.5-0.6-0.7c-0.3-0.2-0.6-0.3-0.9-0.5c-0.3-0.1-0.6-0.2-0.9-0.3l-2.9-0.7c-0.4-0.1-0.8-0.2-1.1-0.4
		c-0.4-0.1-0.7-0.3-1-0.6c-0.3-0.2-0.5-0.5-0.7-0.9c-0.2-0.4-0.2-0.8-0.2-1.3c0-0.3,0.1-0.7,0.2-1.1c0.1-0.4,0.4-0.8,0.7-1.2
		s0.8-0.7,1.4-1s1.4-0.4,2.3-0.4c0.7,0,1.3,0.1,1.9,0.3c0.6,0.2,1.1,0.4,1.6,0.8c0.4,0.3,0.8,0.8,1.1,1.3c0.3,0.5,0.4,1.1,0.4,1.8
		H159c0-0.5-0.1-0.9-0.3-1.3c-0.2-0.4-0.5-0.7-0.8-0.9c-0.3-0.3-0.7-0.4-1.1-0.6c-0.4-0.1-0.9-0.2-1.3-0.2c-0.4,0-0.8,0-1.2,0.1
		s-0.8,0.2-1.1,0.4s-0.5,0.5-0.7,0.8c-0.2,0.3-0.3,0.7-0.3,1.2c0,0.3,0.1,0.6,0.2,0.8c0.1,0.2,0.2,0.4,0.4,0.6
		c0.2,0.2,0.4,0.3,0.6,0.4c0.2,0.1,0.5,0.2,0.8,0.2l3.2,0.8c0.5,0.1,0.9,0.3,1.3,0.5c0.4,0.2,0.8,0.4,1.1,0.7c0.3,0.3,0.6,0.6,0.7,1
		c0.2,0.4,0.3,0.8,0.3,1.4c0,0.1,0,0.3,0,0.6c0,0.2-0.1,0.5-0.2,0.8c-0.1,0.3-0.3,0.6-0.5,0.8c-0.2,0.3-0.5,0.5-0.9,0.8
		c-0.4,0.2-0.8,0.4-1.4,0.6c-0.6,0.1-1.2,0.2-2,0.2c-0.8,0-1.5-0.1-2.2-0.3c-0.7-0.2-1.2-0.5-1.7-0.8c-0.5-0.4-0.8-0.8-1.1-1.4
		c-0.3-0.6-0.4-1.3-0.3-2.1h1.3C151.6,182.1,151.7,182.7,151.9,183.1z"/>
	<path fill="#F6F7F7" d="M164,172.6v13.2h-1.3v-13.2H164z"/>
	<path fill="#F6F7F7" d="M177.2,185.8l-0.2-2.4h0c-0.2,0.5-0.5,0.9-0.8,1.2c-0.3,0.3-0.7,0.6-1.1,0.8c-0.4,0.2-0.8,0.4-1.3,0.5
		s-0.9,0.1-1.4,0.1c-1,0-1.9-0.2-2.7-0.6c-0.8-0.4-1.4-0.9-2-1.5c-0.5-0.6-0.9-1.4-1.2-2.2c-0.3-0.8-0.4-1.7-0.4-2.6
		c0-0.9,0.1-1.8,0.4-2.6c0.3-0.8,0.6-1.6,1.2-2.2c0.5-0.6,1.2-1.1,2-1.5c0.8-0.4,1.7-0.6,2.7-0.6c0.7,0,1.3,0.1,2,0.3
		c0.6,0.2,1.2,0.5,1.6,0.8c0.5,0.4,0.9,0.8,1.2,1.4c0.3,0.5,0.6,1.2,0.7,1.9h-1.3c0-0.4-0.2-0.8-0.4-1.2c-0.2-0.4-0.5-0.7-0.9-1.1
		c-0.4-0.3-0.8-0.6-1.3-0.8c-0.5-0.2-1.1-0.3-1.7-0.3c-0.9,0-1.6,0.2-2.3,0.5s-1.1,0.8-1.5,1.3c-0.4,0.5-0.7,1.2-0.9,1.9
		c-0.2,0.7-0.3,1.4-0.3,2.1c0,0.7,0.1,1.4,0.3,2.1c0.2,0.7,0.5,1.3,0.9,1.9c0.4,0.5,0.9,1,1.5,1.3c0.6,0.3,1.4,0.5,2.3,0.5
		c0.7,0,1.4-0.1,2-0.4c0.6-0.2,1.1-0.6,1.5-1c0.4-0.4,0.7-0.9,0.9-1.5c0.2-0.6,0.3-1.2,0.3-1.9h-4.5v-1.1h5.6v6.7H177.2z"/>
	<path fill="#F6F7F7" d="M181.9,172.6l7.7,11.2h0v-11.2h1.3v13.2h-1.4l-7.7-11.2h0v11.2h-1.3v-13.2H181.9z"/>
	<path fill="#F6F7F7" d="M204.2,185.5c-0.7,0.4-1.4,0.5-2.2,0.5c-0.6,0-1.1-0.1-1.6-0.2c-0.5-0.2-0.9-0.4-1.3-0.7
		c-0.4-0.3-0.6-0.7-0.8-1.1c-0.2-0.5-0.3-1-0.3-1.6c0-0.5,0.1-0.9,0.3-1.3c0.2-0.4,0.5-0.8,0.8-1.1c0.3-0.3,0.7-0.6,1-0.9
		c0.4-0.3,0.8-0.5,1.1-0.7c-0.2-0.2-0.4-0.5-0.6-0.7c-0.2-0.2-0.4-0.5-0.5-0.8c-0.2-0.3-0.3-0.5-0.4-0.8c-0.1-0.3-0.2-0.6-0.2-0.9
		c0-0.4,0.1-0.8,0.2-1.1c0.2-0.3,0.4-0.6,0.6-0.8c0.3-0.2,0.6-0.4,0.9-0.5c0.4-0.1,0.7-0.2,1.1-0.2c0.4,0,0.8,0.1,1.1,0.2
		c0.4,0.1,0.7,0.3,0.9,0.5c0.3,0.2,0.5,0.5,0.6,0.8c0.2,0.3,0.2,0.7,0.2,1.1c0,0.4-0.1,0.8-0.2,1.1c-0.1,0.3-0.3,0.6-0.6,0.9
		c-0.2,0.3-0.5,0.5-0.8,0.7c-0.3,0.2-0.6,0.4-1,0.7l2.9,3.5c0.2-0.3,0.3-0.6,0.3-1c0-0.3,0.1-0.7,0.1-1.2h1.2c0,0.4-0.1,0.8-0.2,1.4
		c-0.1,0.6-0.3,1.2-0.6,1.7l2.2,2.7h-1.5l-1.4-1.7C205.5,184.7,204.9,185.1,204.2,185.5z M201,179.8c-0.3,0.2-0.6,0.4-0.9,0.7
		c-0.3,0.3-0.5,0.6-0.6,0.9c-0.2,0.3-0.2,0.7-0.2,1.1c0,0.4,0.1,0.7,0.2,1.1c0.2,0.3,0.4,0.6,0.6,0.8c0.3,0.2,0.6,0.4,0.9,0.5
		c0.3,0.1,0.7,0.2,1.1,0.2c0.7,0,1.3-0.2,1.8-0.5c0.5-0.4,1-0.8,1.3-1.3l-3.3-4C201.6,179.4,201.3,179.6,201,179.8z M201.4,174
		c-0.3,0.3-0.5,0.7-0.5,1.3c0,0.2,0,0.5,0.1,0.7c0.1,0.2,0.2,0.5,0.4,0.7s0.3,0.5,0.5,0.7c0.2,0.2,0.3,0.4,0.5,0.6
		c0.2-0.1,0.5-0.3,0.7-0.5c0.2-0.2,0.5-0.4,0.7-0.6c0.2-0.2,0.4-0.5,0.5-0.7c0.1-0.3,0.2-0.6,0.2-0.9c0-0.6-0.2-1-0.5-1.3
		c-0.3-0.3-0.8-0.4-1.2-0.4C202.1,173.6,201.7,173.7,201.4,174z"/>
	<path fill="#F6F7F7" d="M219.7,172.6c2,0,3.5,0.6,4.5,1.7c1,1.1,1.5,2.7,1.5,4.9c0,2.2-0.5,3.8-1.5,4.9c-1,1.1-2.5,1.6-4.5,1.7
		h-4.6v-13.2H219.7z M219.1,184.7c1,0,1.8-0.1,2.5-0.3s1.2-0.5,1.7-1c0.4-0.4,0.8-1,1-1.7c0.2-0.7,0.3-1.5,0.3-2.5
		c0-1-0.1-1.8-0.3-2.5c-0.2-0.7-0.5-1.3-1-1.7s-1-0.8-1.7-1s-1.5-0.3-2.5-0.3h-2.7v11.1H219.1z"/>
	<path fill="#F6F7F7" d="M236.9,172.6v1.1h-7.9v4.8h7.4v1.1h-7.4v5.2h8v1.1h-9.2v-13.2H236.9z"/>
	<path fill="#F6F7F7" d="M238.7,172.6l4.3,11.8h0l4.3-11.8h1.3l-4.9,13.2h-1.5l-4.9-13.2H238.7z"/>
	<path fill="#F6F7F7" d="M259,172.6v1.1h-7.9v4.8h7.4v1.1h-7.4v5.2h8v1.1h-9.2v-13.2H259z"/>
	<path fill="#F6F7F7" d="M262.1,172.6v12.1h7.4v1.1h-8.7v-13.2H262.1z"/>
	<path fill="#F6F7F7" d="M270.4,176.6c0.3-0.8,0.6-1.6,1.2-2.2s1.2-1.1,2-1.5c0.8-0.4,1.7-0.6,2.7-0.6c1,0,1.9,0.2,2.7,0.6
		c0.8,0.4,1.4,0.9,1.9,1.5s0.9,1.4,1.2,2.2c0.3,0.8,0.4,1.7,0.4,2.6c0,0.9-0.1,1.8-0.4,2.6c-0.3,0.8-0.6,1.6-1.2,2.2
		c-0.5,0.6-1.2,1.1-1.9,1.5c-0.8,0.4-1.7,0.6-2.7,0.6c-1,0-1.9-0.2-2.7-0.6c-0.8-0.4-1.4-0.9-2-1.5c-0.5-0.6-0.9-1.4-1.2-2.2
		c-0.3-0.8-0.4-1.7-0.4-2.6C270,178.3,270.2,177.4,270.4,176.6z M271.6,181.3c0.2,0.7,0.5,1.3,0.9,1.9c0.4,0.5,0.9,1,1.5,1.3
		c0.6,0.3,1.4,0.5,2.3,0.5c0.9,0,1.6-0.2,2.2-0.5c0.6-0.3,1.1-0.8,1.5-1.3c0.4-0.5,0.7-1.2,0.9-1.9c0.2-0.7,0.3-1.4,0.3-2.1
		c0-0.7-0.1-1.4-0.3-2.1c-0.2-0.7-0.5-1.3-0.9-1.9c-0.4-0.5-0.9-1-1.5-1.3c-0.6-0.3-1.4-0.5-2.2-0.5c-0.9,0-1.6,0.2-2.3,0.5
		s-1.1,0.8-1.5,1.3c-0.4,0.5-0.7,1.2-0.9,1.9c-0.2,0.7-0.3,1.4-0.3,2.1C271.3,179.9,271.4,180.6,271.6,181.3z"/>
	<path fill="#F6F7F7" d="M290.3,172.6c0.6,0,1.1,0.1,1.6,0.3c0.5,0.2,0.9,0.4,1.2,0.7c0.3,0.3,0.6,0.7,0.8,1.2
		c0.2,0.5,0.3,1,0.3,1.6c0,0.6-0.1,1.1-0.3,1.6c-0.2,0.5-0.4,0.9-0.8,1.2c-0.3,0.3-0.8,0.6-1.2,0.7c-0.5,0.2-1,0.3-1.6,0.3h-4.6v5.7
		h-1.3v-13.2H290.3z M290,179c0.9,0,1.6-0.2,2.1-0.7c0.5-0.4,0.8-1.1,0.8-2c0-0.9-0.3-1.6-0.8-2c-0.5-0.4-1.3-0.7-2.1-0.7h-4.3v5.4
		H290z"/>
	<path fill="#F6F7F7" d="M297.9,172.6l4.4,11.6l4.6-11.6h1.9v13.2h-1.3v-11.4h0l-4.5,11.4h-1.2l-4.3-11.4h0v11.4h-1.3v-13.2H297.9z"
		/>
	<path fill="#F6F7F7" d="M320.4,172.6v1.1h-7.9v4.8h7.4v1.1h-7.4v5.2h8v1.1h-9.2v-13.2H320.4z"/>
	<path fill="#F6F7F7" d="M323.7,172.6l7.7,11.2h0v-11.2h1.3v13.2h-1.4l-7.7-11.2h0v11.2h-1.3v-13.2H323.7z"/>
	<path fill="#F6F7F7" d="M344.4,172.6v1.1h-4.6v12.1h-1.3v-12.1h-4.6v-1.1H344.4z"/>
</g>
<g>
	<path fill="#F6F7F7" d="M58.4,115c-0.2-0.7-1.6-3.6,0.3-5.7s6-0.1,6.4-0.5c1-0.9,1.6-2.3,2.8-3c0.9-0.5,2.3,0.4,2,1.5
		c-0.3,1.2-0.8,2.4-1.2,3.6c-0.5,1.4-1.3,2.7-1.6,4.1c-0.6,2.6,1.6,6.3,2.4,8.6c1.5,3.9,2.8,7.9,4.2,11.9c1.2,3.3,2.6,6.7,4.1,9.9
		c0.5,1,1.1,2.6,2,3.2c1.1,0.8,1-2.3,1.1-2.8c0.5-3.3,1.6-6.6,2.3-9.8c0.6-2.9,0.6-6.1,0.7-9c0-2.7,0.8-5.2,0.5-8
		c-0.4-3.6,0.7-7.3,1.7-10.8c0.4-1.3,2.4-6.8,4.5-6.1c1.2,0,0,7.1,0,8.4c0,3.4-0.6,6.8-0.8,10.2c-0.3,4.4-0.7,8.7-1.2,13.1
		c-0.6,6-1.7,12.2-3.5,18c-0.3,0.9-0.9,3.4-1.9,3.9c-1.2,0.6-4.4,2.4-5.6,1.3c-1.9-1.7-2.1-2.1-4.2-6.6c-2.1-4.5-5.1-11.9-6.3-14.3
		c-1.2-2.6-2.2-5.5-3.8-8c-0.8,0.5-2.2,6.6-2.7,8.2c-1.1,3.9-3.8,14.5-5.5,19.7c-1.6,5.2-5.3,7.7-4.4,3c0.8-4.7,2.9-16,3.5-19.4
		C55.9,131.5,57.1,123.2,58.4,115z"/>
	<path fill="#F6F7F7" d="M237.2,146.3c-3.7,3.1-3.8-0.4-4.4-3.3c-0.5-2.9-2.4-6.3-6.1-4.9c-2.5,0.9-3.9,1.9-6.7,5.3
		c-2.9,3.4-3.5,4.3-4.4,4.8c-0.8-1,0.2-1.6,0.8-3.5s2.9-8.6,2.7-10.9c-0.3-3.1-3.7-3.1-5.9-1.7c-2.1,1.4-3.8,3.8-5.5,5.7
		c-2.1,2.4-4.8,5.7-6.1,7.1c-1.3,1.3-4,5.1-6.1,3.5c-2.5-1.9,0.6-8.1-2.4-9c-3-0.9-11.6,8.9-14.4,10.2c-2.8,1.3,1.2-3.5,3.1-5.3
		c1.9-1.8,11-10.1,13.1-12.4c1-1.1,1-3.3-0.7-3.6c-1.5-0.2-3,0.4-4.2,1.1c-3,1.6-5.2,4-7.8,6.2c-2.1,1.7-8.3,7.2-10.2,8.6
		c-1.9,1.4-2.8,2.4-4.3,2.4s-2.4-1-2.9-2.2c-0.3-1.4-1.6-6.9-3.3-6.5c-1.7,0.4-3.8,2-5,4.5c-1.2,2.5-1.9,5.9-4.2,8.6
		c-0.4,0.5-2,2.7-2.1,1.1c-0.1-1.5,0.1-3,0.3-4.5c0.3-1.7,0.7-3.5,1.1-5.2l4-4.9c3.9-4.6,7.6-9.5,10.5-14.8c1.6-2.9,3-5.8,4.3-8.6
		c1.2-2.8,2-6.8,1.8-8.8c-0.3-2-2.2-3.2-5.6-0.8c-3.4,2.4-5.6,5-7.7,8c-2,2.6-3.9,5.3-5.4,8.2c-1.5,3-3.3,5.8-4.1,9.1
		c-1,3.1-2.1,6-2.8,9.2c-0.3,1.3-0.4,3.2-1.2,4.3c-0.8,1.2-1.7,1.6-3.1,3c-1.4,1.5-4.8,4.4-5.6,4.4c-1.8,0,0.1-7.3,0.3-8.3
		c0.7-3.6,1.7-7.2,2.8-10.7c0.4-1.3,0.8-2.6,1.1-4c0.2-0.8,1.6-0.7,2.3-0.9c1.7-0.4,1.9-5,1.2-5.9c-0.7-0.8-0.8-0.7-0.9-1.2
		c0.1-0.7,0.3-1.5,0.6-2.2c0.5-1.2,1.1-3.5-0.4-4.4c-2.7-1.6-4.3,3.5-5.1,5c-0.4,0.8-1.1,2-2.1,2.2c-1,0.1-1.4,0-4.1-0.1
		c-2.8-0.1-5.5-0.3-6.9-0.3c-1.3,0-1.7,1.5-2,2.6c-0.3,2-0.4,3,1.4,3.9c1.6,0.6,3.5,0.4,5.2,0.4c0.7,0,4.5-0.4,4.5,0.2
		c-2.5,6.2-9.2,14-11.3,16.6c-2.1,2.6-1.7,2.5-5,5.3c-3.3,2.8-2.9-6.8-3.4-8.1c-0.9-2.5-4-0.6-5.4,0.7c-1.4,1.3-2.9,2.9-4.4,4
		c-1.5,1.1-5.6,5.4-6.3,4.5c-0.6-0.8,3.3-4.5,4-5.2c1.7-1.6,3.1-3.6,4.8-5.1c1.7-1.4,3.5-3.2,4.9-4.9c1-1.1,5.7-3.7,3.3-5.8
		c-1.8-1.6-5.6,0.9-7,2c-6.6,5-11.4,12.1-15.9,18.9c-1.1,1.6-2.2,3.6-1.9,5.6c0.3,2.6,2.9,3.3,5.1,2.3c2.3-1.1,4.3-2.5,6.2-4.3
		c2.1-1.9,4.3-3.6,6.3-5.6c1.5,1.8,0.4,4.6,2.6,6.2c2.1,1.6,5,1.1,7-0.2c2-1.3,3.4-3.5,5.5-5.4c2.1-1.9,4.8-4.2,6.8-6.7
		c0,0.1,1.6-2.3,1.6-1.2c-0.6,1.4-1,2.5-1.2,4c-0.4,2.5-1.2,4.9-1.3,7.5c-0.2,2-0.7,5.3,1.2,6.7c2.7,2,5.3-1,6.9-2.8
		c1.6-1.9,3.4-3.4,5.3-4.9c0.6-0.5,1.4-1.2,1.9-1.8c0.8,0,0.1,2.1,0.1,2.6c0,1.8,0.1,5.4,1.1,6.9c1.8,2.5,5.1,0.1,6.4-1.5
		c1.8-2,2.9-4.4,4.5-6.5c0.4-0.4,1.4-2.2,2-2.1c0.7,0,1.6,2.3,2,2.8c1.6,2.1,4.4,1.9,6.7,1.3c1.1-0.3,2-1,3-1.6
		c0.6-0.4,1.8-1.3,2.2-1.3c0.5,0-0.6,1.1-0.9,1.6c-1.7,2.2-1.9,6.4,1.5,6.9c2.7,0.4,5.6-2.1,8-4.3c2.4-2.2,4.7-4,6.8-6.2
		c1.1,1.4,0.6,3.8,1.7,5.4c1.1,1.5,3.1,2.1,5,1.8c4.4-0.6,6.6-5.3,9.7-7.8c1.5-1.2,2.7-2.7,4.1-4c2-1.8,2.5-0.2,1.8,1.7
		c-0.7,1.9-1.2,3.9-1.8,5.9c-0.5,1.6-1.6,3.8-1.5,5.5c0.6,5.5,5.4,1,7.7-1.5c2.3-2.5,3.7-4,6.5-7.1s3.7-3,4.9-1.4
		c1.3,1.8,2.4,3.5,3.6,5.4c2.8,4.3,6.6,1.4,9.4-1.7C241.6,146.7,241,143.2,237.2,146.3z M156.3,126.7c1.1-2.7,5.7-10.3,7.4-12.4
		c1.7-2.1,3.4-4.6,3.8-3.6c0.6,1.1-1,3.4-1.5,4.4c-1.2,2.4-2,4.1-3.5,7s-7.8,10.3-8.8,11.4C152.8,134.6,155.2,129.3,156.3,126.7z"/>
	<path fill="#F6F7F7" d="M262.3,149.2c-0.2-5.5,0.7-9.7,1.2-15c0.5-5.4,1.8-24.6,3.1-26.8c1.2-2,3.8-2.6,5.8-3.4
		c3.1-1.1,2.3,2.2,2,4c-2,11.3-5.6,27.6-5.9,32s-0.3,8.1-0.2,9.7c0.2,1.6,1.6,3.6,0.5,5.9c-1,2.3-3.5,3.5-4.8,2.3
		C263.3,157.2,262.5,154.7,262.3,149.2z"/>
	<path fill="#F6F7F7" d="M454.8,134.5c-24.4-7.8-43.4-3.5-62.2,7.2c-18.8,10.7-22.2,14.2-25.6,11.8c-2.6-1.9-3.1-4.5-1.3-7.2
		c1.8-2.7,3.4-4.7,6.1-6c2.7-1.3,8.4-2.9,8.4-6.7c0-3.1-6.6-0.3-12.2,3.8c-5.6,4.1-6.8,5-9,7.2c-1.3,1.3-3,5.1-5.3,4.3
		c-3.5-1.1-0.7-6.5-2.2-8.7c-1.8-2.7-5.6,2.3-7.4,3.5c-1.9,1.3-4,3.4-6.1,5c-0.7,0.5-4.3,4-3.6,1.3c0.7-2.6,2.5-6.1,6.1-9.5
		c3.6-3.3,8.2-5.7,10.8-7.6c2.5-1.9,2.3-5.4-1.4-4.4c-3.3,0.9-6.8,4.2-8.6,5.8c-1.9,1.6-6.2,5.4-9.5,8.5c-3.3,3.1-5.8,6.1-7,6.1
		c-1.7,0-2.6-1.7-2.5-3.2c0-2.2,0.9-7.4-3.1-6c-1.4,0.5-2.6,1.6-3.6,2.6c-1,1-2.1,2.1-4.2,4.1c-2.1,2-3.9,3.6-5.3,3.5
		c-1.4-0.1-1.3-2.4,2.1-5.9c3.5-3.5,11.2-9.4,13.4-11c2-1.5,2.8-5-0.8-4.5c-3,0.4-9.5,5.1-12.3,8.2c-2.9,3.1-4.5,4.9-7.6,7.8
		c-3,2.9-8.3,7.4-8.9,6.3c0.8-2.6,1.7-5.1,2.5-7.7c0.6-2,1-3.9,1.2-5.9c0.3-2.1,1.6-5.8-0.8-7.2c-3.3-1.9-11.2,7.3-13.2,9.3
		c-2,2-6.7,4.2-7.7,7.1c-1,2.8,0,4.7,1.5,3.5c1.5-1.2,4.5-4.7,6.9-6.9c1.2-1,3.6-4,5.2-4c2,0,0.5,5.9,0.4,7.1
		c-0.1,0.4-0.3,3.2-1,3.2c-0.9,0-0.6-1.5-2.1-1.1c-2.9,0.7-2.6,5.1-2,6.7c0.6,1.6,4.5,3.8,6.4,1.6c1.8-2.1,9.9-5.8,10.4-6.2
		c-0.2,1.2-1.5,2.2-1.7,3.6c-0.4,2.6,1.6,5.5,4.4,4.2c2.6-1,4.8-2.7,6.8-4.6c2-1.9,4.3-3.6,6.3-5.6c1.1,1.4,0.6,3.8,1.7,5.4
		c1,1.4,2.6,1.9,4.3,1.9c1.9,0,3.6-1.1,5-2.3c0.8-0.7,1.6-1.5,2.4-2.2c0.3-0.3,0.3,0.5-0.4,1.5c-0.7,1.1-0.9,2.3-0.7,3.5
		c0.4,2.6,2.9,3.3,5.1,2.3c2.6-1.2,4.6-2.9,6.7-4.8c1.8-1.7,4.2-3.2,5.8-5.1c1,1.3,0.6,3.4,1.4,4.9c0.8,1.4,2.2,2.1,3.8,2.3
		c3.8,0.4,6.3-2.7,8.8-5.1c0,2.7,0.5,6.5,5.3,9.2c4.7,2.6,11.3-4.7,32.5-16.3c21.2-11.6,37.4-13.1,59.5-2.1c21.2,10.5,10,32-3.7,43
		c-32.9,26.5-77.2,39.8-117.6,49.4c-82,19.4-171.9,24.7-248.6-15.5c-31.8-16.6-61.8-42.4-74.5-76.8C-2.6,101,23,63.8,55,42.4
		c38.3-25.6,88.2-40,134-39c20.4,0.4,40.7,5.1,59.5,12.9c16.6,6.8,36.5,18,43.8,35.1c2.7,6.4,2.2,11.7-0.3,16.2
		c-5.4,0.7-10.8,1.4-16.2,2.2C259,72.5,233,78.6,226,80.5c-7,1.9-25.3,8.4-17.8,10.9c7.4,2.5,31.6,1,46.3-2.5
		c12.4-3,29.2-6.6,39-15.5c1.5-1.3,2.7-2.7,3.8-4c24.8-2.7,49.8-3.4,74.8-2.4c1.5,0.1,8.7-2.8,5-3c-26.1-1.1-52.1-0.1-78,2.8
		c14.6-23.8-29.8-47.5-47.4-54.8c-62.9-26-138-6.5-194.9,25.6C28.8,53.4,5.4,78.2,0.7,110.9c-4.9,33.6,18.8,64.3,42.6,84.8
		c55.5,48,132.9,59,203.6,53.7c70.1-5.2,146-22.3,205.4-61.3c9-5.9,21.8-14.8,23.6-26.3C477.8,148.6,467.1,138.4,454.8,134.5z
		 M241.9,88.7c-4.4,0.5-9.5,1.1-18,0.8c-8.5-0.3-7.8-3.8-2.1-5.5c5.7-1.7,21.9-5.6,32.9-7.9c11.8-2.4,23.6-4.4,35.6-5.9
		C280.4,82.5,254,87.1,241.9,88.7z"/>
</g>
</svg>
