<svg id="Layer_4" data-name="Layer 4" xmlns="http://www.w3.org/2000/svg" viewBox="0 0 722.43 114.56"><defs><style>.cls-1{fill:#fff;}</style></defs><title>nathan-isaac-logo-white</title><path class="cls-1" d="M187.52,93.47L164.28,38.65A215.33,215.33,0,0,1,166,65.81V93.47H154.28V25.7h16.38l23.63,54.92a167.87,167.87,0,0,1-1.76-23.15V25.7h11.77V93.47H187.52Z"/><path class="cls-1" d="M262.06,86.4l-2.65,8.34c-5.69-.49-9.41-2.55-11.47-7.55-3.63,5.49-9.32,7.75-15.5,7.75-10.39,0-16.77-6.57-16.77-16,0-11.28,8.53-17.36,23.63-17.36h6.47V58.65c0-6.77-3-9-9.71-9a46.27,46.27,0,0,0-13.73,2.75l-2.94-8.53a53.52,53.52,0,0,1,18.83-3.73c13.83,0,19.91,6.37,19.91,17.85V79.74C258.14,84,259.51,85.43,262.06,86.4Zm-16.28-7V68.95h-5.2c-8.14,0-12.16,2.94-12.16,9,0,5,2.55,7.85,7.35,7.85C240.19,85.82,243.43,83.56,245.78,79.44Z"/><path class="cls-1" d="M290,94.94c-10.2-.1-15.59-5.88-15.59-17V50.61h-8.14v-9h8.14V30.12L287,28.64V41.59H299l-1.27,9H287V77.68c0,5.1,1.67,7.16,5.49,7.16a11.64,11.64,0,0,0,6.18-2L303.06,91A22.68,22.68,0,0,1,290,94.94Z"/><path class="cls-1" d="M352.48,55.91V93.47H339.93V57.87c0-6.47-2.55-8.34-6.37-8.34-4.41,0-7.85,3-10.89,7.75V93.47H310.12V20.9l12.55-1.27V47.77c4-4.9,8.83-7.65,15.1-7.65C347,40.12,352.48,46.1,352.48,55.91Z"/><path class="cls-1" d="M409.37,86.4l-2.65,8.34c-5.69-.49-9.41-2.55-11.47-7.55-3.63,5.49-9.32,7.75-15.5,7.75-10.39,0-16.77-6.57-16.77-16,0-11.28,8.53-17.36,23.63-17.36h6.47V58.65c0-6.77-3-9-9.71-9a46.27,46.27,0,0,0-13.73,2.75l-2.94-8.53a53.52,53.52,0,0,1,18.83-3.73c13.83,0,19.91,6.37,19.91,17.85V79.74C405.45,84,406.82,85.43,409.37,86.4Zm-16.28-7V68.95h-5.2c-8.14,0-12.16,2.94-12.16,9,0,5,2.55,7.85,7.35,7.85C387.5,85.82,390.74,83.56,393.09,79.44Z"/><path class="cls-1" d="M463,55.91V93.47H450.46V57.87c0-6.47-2.45-8.34-6.37-8.34-4.51,0-7.85,3-10.89,7.85V93.47H420.65V41.59h10.89l1,6.77c4-5.2,9.22-8.24,15.79-8.24C457.62,40.12,463,46,463,55.91Z"/><path class="cls-1" d="M507.25,93.47V26.29h5.89V93.47h-5.89Z"/><path class="cls-1" d="M563.35,46.79l-2.75,3.82c-4.41-3.24-8.24-4.8-13.44-4.8-6.77,0-11.38,3.33-11.38,8.63,0,5.1,3.24,7.26,12.45,9.71,11.18,2.94,16.48,6.77,16.48,15.5,0,9.51-8.34,14.91-18.54,14.91A26.87,26.87,0,0,1,527.85,88l3.24-3.73a21.88,21.88,0,0,0,15,5.49c7.45,0,12.65-3.53,12.65-9.71s-2.84-8.53-13.53-11.47c-10.89-2.84-15.3-6.86-15.3-14.12,0-7.75,7.35-13.34,17.06-13.34A25.2,25.2,0,0,1,563.35,46.79Z"/><path class="cls-1" d="M616.12,90.52l-1.27,4c-4.51-.88-7.16-3.14-7.94-8.63-3.63,5.89-9.12,8.63-16,8.63-9.9,0-15.89-6.18-15.89-15.3,0-10.79,8.14-16.67,21.28-16.67h9.81V57.67c0-8.14-3.34-11.77-11.87-11.77a41.74,41.74,0,0,0-13.93,2.94l-1.47-4.32A42.86,42.86,0,0,1,595,41.1c11.67,0,16.77,5.79,16.77,16.28V82.09C611.8,87.78,613.37,89.45,616.12,90.52Zm-10-9.61V66.79h-8.93c-10.3,0-16.08,4-16.08,12.16,0,7.06,4,11,10.79,11C598.37,89.93,602.88,86.7,606.12,80.91Z"/><path class="cls-1" d="M668.69,90.52l-1.27,4c-4.51-.88-7.16-3.14-7.94-8.63-3.63,5.89-9.12,8.63-16,8.63-9.9,0-15.89-6.18-15.89-15.3,0-10.79,8.14-16.67,21.28-16.67h9.81V57.67c0-8.14-3.34-11.77-11.87-11.77a41.74,41.74,0,0,0-13.93,2.94l-1.47-4.32A42.86,42.86,0,0,1,647.6,41.1c11.67,0,16.77,5.79,16.77,16.28V82.09C664.37,87.78,665.94,89.45,668.69,90.52Zm-10-9.61V66.79h-8.93c-10.3,0-16.08,4-16.08,12.16,0,7.06,4,11,10.79,11C650.94,89.93,655.45,86.7,658.69,80.91Z"/><path class="cls-1" d="M717.14,46.3l-2.84,3.82A16.56,16.56,0,0,0,702.92,46C693.6,46,687,53.26,687,68.07s6.47,21.48,15.79,21.48a17.51,17.51,0,0,0,11.77-4.41l2.84,3.92a22.16,22.16,0,0,1-14.71,5.49c-13.14,0-21.77-9.71-21.77-26.38,0-16.47,8.53-27.07,21.67-27.07A20.53,20.53,0,0,1,717.14,46.3Z"/><path class="cls-1" d="M57.28,0a57.28,57.28,0,1,0,57.28,57.28A57.28,57.28,0,0,0,57.28,0ZM81.84,92.32H68.93L40.45,32.82c0.51,5.8,1.32,14.34,1.32,27.36V92.32H32.72V22.24H45.33L74.11,81.84c-0.2-1.63-1.32-12.82-1.32-21.36V22.24h9.05V92.32Z"/></svg>